PathFileType	4	(X/Y/Z)	/home/utkubuntu/opensim/opensim_mycode/release_code/bioimitation/imitation_envs/data/02905/02905_PRE/experimental_data/task.trc
DataRate	CameraRate	NumFrames	NumMarkers	Units	OrigDataRate	OrigDataStartFrame	OrigNumFrames
100.000000	100.000000	4	43	mm	100.000000	358	478
Frame#	Time	C7			CLAV			LANK			LASI			LBHD			LELB			LFHD			LFIN			LHEE			LKNE			LMED			LMET			LMIF			LPSI			LSHO			LTHI			LTIB			LTOE			LTTU			LWRA			LWRB			RANK			RASI			RBAK			RBHD			RELB			RFHD			RFIN			RHEE			RKNE			RMED			RMET			RMIF			RPSI			RSHO			RTHI			RTIB			RTOE			RTTU			RWRA			RWRB			STRN			T10			
		X1	Y1	Z1	X2	Y2	Z2	X3	Y3	Z3	X4	Y4	Z4	X5	Y5	Z5	X6	Y6	Z6	X7	Y7	Z7	X8	Y8	Z8	X9	Y9	Z9	X10	Y10	Z10	X11	Y11	Z11	X12	Y12	Z12	X13	Y13	Z13	X14	Y14	Z14	X15	Y15	Z15	X16	Y16	Z16	X17	Y17	Z17	X18	Y18	Z18	X19	Y19	Z19	X20	Y20	Z20	X21	Y21	Z21	X22	Y22	Z22	X23	Y23	Z23	X24	Y24	Z24	X25	Y25	Z25	X26	Y26	Z26	X27	Y27	Z27	X28	Y28	Z28	X29	Y29	Z29	X30	Y30	Z30	X31	Y31	Z31	X32	Y32	Z32	X33	Y33	Z33	X34	Y34	Z34	X35	Y35	Z35	X36	Y36	Z36	X37	Y37	Z37	X38	Y38	Z38	X39	Y39	Z39	X40	Y40	Z40	X41	Y41	Z41	X42	Y42	Z42	X43	Y43	Z43	

359	3.58	1803.805053710938	1248.125	287.3299865722651	1915.964965820312	1174.208984375	281.3330078124995	1565.4599609375	206.0590057373047	208.1679992675779	1874.927001953125	827.7969970703125	170.9270019531246	1817.131958007812	1379.68896484375	227.8099975585932	1838.681030273438	967.3480224609375	67.90499877929643	1957.569946289062	1401.744018554688	228.8320007324213	2030.529052734375	794.1270141601562	39.65399932861285	1531.759033203125	211.9530029296876	270.0260009765623	1836.5849609375	437.3850097656251	151.4299926757809	1604.121948242188	180.2500000000001	266.0820007324216	1564.029052734375	118.8679962158204	168.5390014648435	1615.375	151.4839935302735	208.3970031738279	1744.651000976562	856.9390258789062	252.8489990234371	1833.54296875	1221.779052734375	148.7180023193354	1824.114013671875	496.1839904785156	111.285003662109	1686.238037109375	325.8229980468751	134.4279937744138	1600.900024414062	100.8949966430664	182.2890014648435	1846.671997070312	330.3619995117188	191.6679992675778	2004.383056640625	852.5239868164062	71.55100250244098	1965.47998046875	799.7650146484375	56.2319984436031	1875.260009765625	66.04900360107429	337.5079956054685	1908.802978515625	844.6580200195314	390.3569946289059	1759.616943359375	1130.43798828125	372.9890136718745	1800.469970703125	1352.546020507812	363.7499999999995	1784.97802734375	951.7390136718751	493.2390136718745	1957.569946289062	1390.782958984375	367.2330017089839	1788.573974609375	692.4589843750001	517.9089965820309	1833.628051757812	35.4529991149903	285.8590087890623	1916.380004882812	442.3349914550782	387.0490112304684	1905.203979492188	66.06300354003912	266.2919921874998	1950.655029296875	31.56800079345711	369.8399963378904	1942.191040039062	77.41100311279304	315.6929931640623	1756.074951171875	869.4160156250001	347.3980102539059	1845.571044921875	1221.244018554688	410.7690124511714	1920.401977539062	526.0150146484376	442.2709960937497	1889.130004882812	259.3970031738282	420.6010131835935	1984.215942382812	45.13399887084969	341.8749999999998	1960.526000976562	362.9030151367188	327.377990722656	1806.723999023438	731.5239868164064	480.1369934082027	1749.074951171875	737.5209960937501	515.7499999999997	1944.090942382812	1052.151000976562	272.7059936523433	1762.41796875	976.3200073242189	292.4479980468745	
360	3.59	1814.225952148438	1249.297973632812	287.890014648437	1926.139038085938	1175.321044921875	281.2279968261714	1587.954956054688	206.4510040283204	206.3549957275388	1885.363037109375	829.5289916992188	172.024993896484	1827.39404296875	1381.02294921875	228.6320037841791	1844.826049804688	967.1680297851562	70.69899749755815	1967.85205078125	1403.066040039062	228.7409973144526	2029.868041992188	786.1610107421875	41.50400161743121	1553.503051757812	211.822006225586	267.9880065917966	1856.364990234375	439.7539978027344	151.0090026855466	1626.458984375	181.0639953613282	264.523986816406	1587.9189453125	119.3980026245118	166.5809936523435	1638.541015625	152.7310028076172	206.7870025634763	1754.93798828125	858.5330200195312	253.8789978027339	1842.735961914062	1222.6669921875	149.0319976806636	1840.93896484375	498.1229858398438	111.5390014648434	1708.06396484375	327.7399902343751	133.2899932861325	1625.005981445312	102.0270004272461	180.522994995117	1868.659057617188	332.9259948730469	190.6540069580075	2006.60400390625	846.3070068359375	72.63800048828082	1965.406982421875	794.6959838867188	59.56600189208942	1875.380981445312	66.17700195312507	337.4679870605466	1918.7080078125	845.3549804687501	391.5820007324215	1770.541015625	1131.81494140625	374.2179870605464	1811.697021484375	1353.578979492188	364.6050109863276	1799.10400390625	952.5219726562501	494.4169921874995	1968.737060546875	1391.767944335938	367.1390075683589	1806.925048828125	693.6610107421876	519.9979858398434	1833.588012695312	35.5680007934571	285.9119873046873	1920.277954101562	442.0469970703126	387.3819885253903	1905.22998046875	66.01100158691412	266.2040100097654	1950.6650390625	31.5389995574952	369.8429870605466	1942.2509765625	77.2409973144532	315.6189880371091	1766.363037109375	870.5910034179689	348.6350097656246	1856.547973632812	1222.621948242188	411.0929870605464	1925.427001953125	525.7249755859376	442.8420104980465	1891.923950195312	259.1570129394532	420.7510070800778	1984.280029296875	45.08399963378914	341.8949890136716	1963.326049804688	362.1679992675782	327.3550109863278	1823.973022460938	732.5910034179689	481.6900024414059	1766.577026367188	737.8579711914064	517.6560058593747	1954.255981445312	1053.322998046875	272.8720092773433	1772.651000976562	977.5520019531251	293.6740112304683	
361	3.6	1824.572021484375	1250.413940429688	288.4299926757807	1936.2490234375	1176.469970703125	281.151000976562	1610.930053710938	205.7120056152344	204.4700012207029	1895.948974609375	831.27099609375	173.1979980468746	1837.538940429688	1382.307006835938	229.3930053710932	1850.822021484375	966.9769897460938	73.40699768066362	1978.024047851562	1404.279052734375	228.4459991455072	2028.574951171875	778.1740112304688	43.41799926757771	1575.711059570312	210.4450073242188	265.8210144042966	1875.8740234375	442.2090148925782	150.5590057373044	1649.400024414062	181.0570068359376	262.9230041503903	1612.85302734375	118.7720031738282	164.7050018310545	1662.537963867188	153.207992553711	205.2200012207029	1765.255981445312	860.239990234375	254.567001342773	1851.833984375	1223.475952148438	149.3749999999995	1857.975952148438	500.1080017089844	111.6029968261715	1729.892944335938	328.7619934082032	131.9689941406247	1650.220947265625	102.2839965820313	178.8650054931638	1890.537963867188	335.6730041503907	189.6730041503903	2008.285034179688	839.89697265625	73.7720031738277	1964.89404296875	789.7459716796875	62.88499832153278	1875.484008789062	66.32700347900398	337.4200134277341	1928.442016601562	846.0449829101564	392.9549865722652	1781.475952148438	1133.18896484375	375.5020141601558	1822.93603515625	1354.642944335938	365.4140014648432	1813.181030273438	953.4260253906251	495.5859985351558	1979.91796875	1392.720947265625	366.8330078124995	1825.615966796875	695.0999755859376	521.9530029296872	1833.5810546875	35.74000167846686	285.9339904785154	1924.20703125	441.8519897460939	387.6329956054684	1905.224975585938	65.95899963378912	266.1189880371091	1950.694946289062	31.51700019836434	369.8330078124998	1942.301025390625	77.09999847412116	315.5360107421873	1776.547973632812	871.8239746093751	349.5320129394527	1867.473022460938	1224.057006835938	411.3999938964839	1931.192016601562	525.6290283203126	443.1220092773434	1895.22998046875	258.884002685547	420.8850097656247	1984.359985351562	45.0439987182618	341.9100036621091	1965.907958984375	361.5069885253907	327.0559997558591	1841.557983398438	733.9210205078126	483.160003662109	1784.3330078125	738.3029785156251	519.3969726562497	1964.368041992188	1054.545043945312	273.0929870605464	1782.879028320312	978.7520141601564	294.8269958496089	
362	3.61	1834.850952148438	1251.444946289062	288.9620056152339	1946.31005859375	1177.630981445312	281.1159973144526	1634.297973632812	203.9149932861329	202.5809936523435	1906.640014648438	832.9429931640625	174.4299926757808	1847.569946289062	1383.530029296875	230.1020050048823	1856.6259765625	966.7310180664062	76.05999755859331	1988.088989257812	1405.366943359375	227.9730072021479	2026.661010742188	770.2310180664062	45.40399932861286	1598.35498046875	207.7920074462891	263.5710144042966	1895.125	444.6799926757813	150.0500030517575	1672.931030273438	180.2169952392579	261.2590026855466	1638.762939453125	117.0859985351563	162.867004394531	1687.322021484375	152.9730072021485	203.6510009765623	1775.589965820312	861.947021484375	254.9450073242183	1860.884033203125	1224.181030273438	149.7590026855464	1875.2900390625	502.1059875488281	111.3830032348629	1751.734985351562	328.8389892578126	130.4869995117184	1676.508056640625	101.7799987792969	177.220993041992	1912.22705078125	338.5140075683594	188.7830047607419	2009.448974609375	833.3359985351562	74.9639968872066	1963.953979492188	784.916015625	66.12599945068318	1875.579956054688	66.50299835205085	337.3720092773435	1938.02197265625	846.7030029296876	394.4400024414059	1792.342041015625	1134.5400390625	376.8469848632808	1834.177978515625	1355.7099609375	366.1749877929682	1827.20703125	954.4089965820314	496.7739868164058	1991.126953125	1393.60595703125	366.3150024414057	1844.608032226562	696.7379760742189	523.7600097656247	1833.597045898438	35.96200180053717	285.9309997558591	1928.110961914062	441.7160034179689	387.8389892578122	1905.218017578125	65.91400146484381	266.0459899902341	1950.739990234375	31.49900054931649	369.8219909667966	1942.343017578125	76.97100067138679	315.4469909667966	1786.573974609375	873.0689697265626	350.0929870605465	1878.357055664062	1225.508056640625	411.7070007324214	1937.339965820312	525.6199951171876	443.222991943359	1898.511962890625	258.644012451172	421.002990722656	1984.453002929688	45.01100158691414	341.9309997558591	1968.379028320312	360.9330139160157	326.6789855957028	1859.421997070312	735.4730224609376	484.5299987792965	1802.328979492188	738.8319702148439	520.9849853515622	1974.443969726562	1055.764038085938	273.3949890136714	1793.108032226562	979.8829956054689	295.9179992675777	
